{
	"asset":{
		"generator":"Khronos glTF Blender I/O v4.2.70",
		"version":"2.0"
	},
	"scene":0,
	"scenes":[
		{
			"name":"Scene",
			"nodes":[
				0,
				1
			]
		}
	],
	"nodes":[
		{
			"mesh":0,
			"name":"Base",
			"translation":[
				0,
				1,
				0
			]
		},
		{
			"mesh":1,
			"name":"Tip",
			"scale":[
				0.17842920124530792,
				0.17842920124530792,
				0.17842920124530792
			],
			"translation":[
				0,
				1.7589682340621948,
				0
			]
		}
	],
	"materials":[
		{
			"doubleSided":true,
			"name":"Material.002",
			"pbrMetallicRoughness":{
				"baseColorFactor":[
					0.45604056119918823,
					0.5024006962776184,
					0,
					1
				],
				"metallicFactor":0.8327272534370422,
				"roughnessFactor":0
			}
		},
		{
			"doubleSided":true,
			"name":"Material",
			"pbrMetallicRoughness":{
				"baseColorFactor":[
					0,
					0,
					0,
					1
				],
				"metallicFactor":0
			}
		}
	],
	"meshes":[
		{
			"name":"Cube.002",
			"primitives":[
				{
					"attributes":{
						"POSITION":0,
						"NORMAL":1,
						"TEXCOORD_0":2
					},
					"indices":3,
					"material":0
				},
				{
					"attributes":{
						"POSITION":4,
						"NORMAL":5,
						"TEXCOORD_0":6
					},
					"indices":7,
					"material":1
				}
			]
		},
		{
			"name":"Cube.003",
			"primitives":[
				{
					"attributes":{
						"POSITION":8,
						"NORMAL":9,
						"TEXCOORD_0":10
					},
					"indices":11,
					"material":0
				}
			]
		}
	],
	"accessors":[
		{
			"bufferView":0,
			"componentType":5126,
			"count":36,
			"max":[
				1.1035330295562744,
				-0.8556881546974182,
				1.1035330295562744
			],
			"min":[
				-1.1035330295562744,
				-1.000110149383545,
				-1.1035330295562744
			],
			"type":"VEC3"
		},
		{
			"bufferView":1,
			"componentType":5126,
			"count":36,
			"type":"VEC3"
		},
		{
			"bufferView":2,
			"componentType":5126,
			"count":36,
			"type":"VEC2"
		},
		{
			"bufferView":3,
			"componentType":5123,
			"count":54,
			"type":"SCALAR"
		},
		{
			"bufferView":4,
			"componentType":5126,
			"count":20,
			"max":[
				1,
				0.5832984447479248,
				1
			],
			"min":[
				-1,
				-0.8556881546974182,
				-1
			],
			"type":"VEC3"
		},
		{
			"bufferView":5,
			"componentType":5126,
			"count":20,
			"type":"VEC3"
		},
		{
			"bufferView":6,
			"componentType":5126,
			"count":20,
			"type":"VEC2"
		},
		{
			"bufferView":7,
			"componentType":5123,
			"count":30,
			"type":"SCALAR"
		},
		{
			"bufferView":8,
			"componentType":5126,
			"count":12,
			"max":[
				1,
				1,
				1
			],
			"min":[
				-1,
				-1,
				-1
			],
			"type":"VEC3"
		},
		{
			"bufferView":9,
			"componentType":5126,
			"count":12,
			"type":"VEC3"
		},
		{
			"bufferView":10,
			"componentType":5126,
			"count":12,
			"type":"VEC2"
		},
		{
			"bufferView":11,
			"componentType":5123,
			"count":12,
			"type":"SCALAR"
		}
	],
	"bufferViews":[
		{
			"buffer":0,
			"byteLength":432,
			"byteOffset":0,
			"target":34962
		},
		{
			"buffer":0,
			"byteLength":432,
			"byteOffset":432,
			"target":34962
		},
		{
			"buffer":0,
			"byteLength":288,
			"byteOffset":864,
			"target":34962
		},
		{
			"buffer":0,
			"byteLength":108,
			"byteOffset":1152,
			"target":34963
		},
		{
			"buffer":0,
			"byteLength":240,
			"byteOffset":1260,
			"target":34962
		},
		{
			"buffer":0,
			"byteLength":240,
			"byteOffset":1500,
			"target":34962
		},
		{
			"buffer":0,
			"byteLength":160,
			"byteOffset":1740,
			"target":34962
		},
		{
			"buffer":0,
			"byteLength":60,
			"byteOffset":1900,
			"target":34963
		},
		{
			"buffer":0,
			"byteLength":144,
			"byteOffset":1960,
			"target":34962
		},
		{
			"buffer":0,
			"byteLength":144,
			"byteOffset":2104,
			"target":34962
		},
		{
			"buffer":0,
			"byteLength":96,
			"byteOffset":2248,
			"target":34962
		},
		{
			"buffer":0,
			"byteLength":24,
			"byteOffset":2344,
			"target":34963
		}
	],
	"buffers":[
		{
			"byteLength":2368,
			"uri":"dark_pyramid.bin"
		}
	]
}
