{
	"asset":{
		"generator":"Khronos glTF Blender I/O v4.2.70",
		"version":"2.0"
	},
	"scene":0,
	"scenes":[
		{
			"name":"Scene",
			"nodes":[
				0,
				1,
				2,
				3
			]
		}
	],
	"nodes":[
		{
			"mesh":0,
			"name":"Base"
		},
		{
			"mesh":1,
			"name":"Side",
			"scale":[
				0.9864688515663147,
				0.9864688515663147,
				0.9864688515663147
			]
		},
		{
			"mesh":2,
			"name":"Inka Top",
			"rotation":[
				0,
				0,
				-1,
				7.549790836947068e-08
			],
			"scale":[
				0.9232280850410461,
				0.6512250900268555,
				0.9232280850410461
			],
			"translation":[
				-0.020937670022249222,
				0.9306399822235107,
				0.04946647956967354
			]
		},
		{
			"mesh":3,
			"name":"Inka Bottom",
			"rotation":[
				0,
				0,
				-1,
				7.549789415861596e-08
			],
			"scale":[
				0.9232280850410461,
				0.6264228224754333,
				0.9232280850410461
			],
			"translation":[
				0.020937878638505936,
				0.05761684477329254,
				0.049466412514448166
			]
		}
	],
	"materials":[
		{
			"doubleSided":true,
			"name":"Material.001",
			"pbrMetallicRoughness":{
				"baseColorFactor":[
					0,
					0,
					0,
					1
				],
				"metallicFactor":0
			}
		},
		{
			"doubleSided":true,
			"name":"Material.002",
			"pbrMetallicRoughness":{
				"baseColorFactor":[
					0.45604056119918823,
					0.5024006962776184,
					0,
					1
				],
				"metallicFactor":0.8327272534370422,
				"roughnessFactor":0
			}
		}
	],
	"meshes":[
		{
			"name":"Cube",
			"primitives":[
				{
					"attributes":{
						"POSITION":0,
						"NORMAL":1,
						"TEXCOORD_0":2
					},
					"indices":3,
					"material":0
				}
			]
		},
		{
			"name":"Cube.086",
			"primitives":[
				{
					"attributes":{
						"POSITION":4,
						"NORMAL":5,
						"TEXCOORD_0":6
					},
					"indices":7,
					"material":1
				}
			]
		},
		{
			"name":"Cube.030",
			"primitives":[
				{
					"attributes":{
						"POSITION":8,
						"NORMAL":9,
						"TEXCOORD_0":10
					},
					"indices":11,
					"material":1
				}
			]
		},
		{
			"name":"Cube.054",
			"primitives":[
				{
					"attributes":{
						"POSITION":12,
						"NORMAL":13,
						"TEXCOORD_0":14
					},
					"indices":15,
					"material":1
				}
			]
		}
	],
	"accessors":[
		{
			"bufferView":0,
			"componentType":5126,
			"count":692,
			"max":[
				1.5,
				1,
				1.5
			],
			"min":[
				-1.5,
				0,
				-1.5
			],
			"type":"VEC3"
		},
		{
			"bufferView":1,
			"componentType":5126,
			"count":692,
			"type":"VEC3"
		},
		{
			"bufferView":2,
			"componentType":5126,
			"count":692,
			"type":"VEC2"
		},
		{
			"bufferView":3,
			"componentType":5123,
			"count":1188,
			"type":"SCALAR"
		},
		{
			"bufferView":4,
			"componentType":5126,
			"count":916,
			"max":[
				1.4840692281723022,
				0.778026819229126,
				1.4840692281723022
			],
			"min":[
				-1.4840692281723022,
				0.22197303175926208,
				-1.4840692281723022
			],
			"type":"VEC3"
		},
		{
			"bufferView":5,
			"componentType":5126,
			"count":916,
			"type":"VEC3"
		},
		{
			"bufferView":6,
			"componentType":5126,
			"count":916,
			"type":"VEC2"
		},
		{
			"bufferView":7,
			"componentType":5123,
			"count":1980,
			"type":"SCALAR"
		},
		{
			"bufferView":8,
			"componentType":5126,
			"count":4817,
			"max":[
				1.418952226638794,
				0.04256783798336983,
				1.3973803520202637
			],
			"min":[
				-1.4681878089904785,
				-0.040878187865018845,
				-1.4998383522033691
			],
			"type":"VEC3"
		},
		{
			"bufferView":9,
			"componentType":5126,
			"count":4817,
			"type":"VEC3"
		},
		{
			"bufferView":10,
			"componentType":5126,
			"count":4817,
			"type":"VEC2"
		},
		{
			"bufferView":11,
			"componentType":5123,
			"count":8523,
			"type":"SCALAR"
		},
		{
			"bufferView":12,
			"componentType":5126,
			"count":4817,
			"max":[
				1.468187689781189,
				0.04087412357330322,
				1.3973803520202637
			],
			"min":[
				-1.4189519882202148,
				-0.042571306228637695,
				-1.4998382329940796
			],
			"type":"VEC3"
		},
		{
			"bufferView":13,
			"componentType":5126,
			"count":4817,
			"type":"VEC3"
		},
		{
			"bufferView":14,
			"componentType":5126,
			"count":4817,
			"type":"VEC2"
		},
		{
			"bufferView":15,
			"componentType":5123,
			"count":8523,
			"type":"SCALAR"
		}
	],
	"bufferViews":[
		{
			"buffer":0,
			"byteLength":8304,
			"byteOffset":0,
			"target":34962
		},
		{
			"buffer":0,
			"byteLength":8304,
			"byteOffset":8304,
			"target":34962
		},
		{
			"buffer":0,
			"byteLength":5536,
			"byteOffset":16608,
			"target":34962
		},
		{
			"buffer":0,
			"byteLength":2376,
			"byteOffset":22144,
			"target":34963
		},
		{
			"buffer":0,
			"byteLength":10992,
			"byteOffset":24520,
			"target":34962
		},
		{
			"buffer":0,
			"byteLength":10992,
			"byteOffset":35512,
			"target":34962
		},
		{
			"buffer":0,
			"byteLength":7328,
			"byteOffset":46504,
			"target":34962
		},
		{
			"buffer":0,
			"byteLength":3960,
			"byteOffset":53832,
			"target":34963
		},
		{
			"buffer":0,
			"byteLength":57804,
			"byteOffset":57792,
			"target":34962
		},
		{
			"buffer":0,
			"byteLength":57804,
			"byteOffset":115596,
			"target":34962
		},
		{
			"buffer":0,
			"byteLength":38536,
			"byteOffset":173400,
			"target":34962
		},
		{
			"buffer":0,
			"byteLength":17046,
			"byteOffset":211936,
			"target":34963
		},
		{
			"buffer":0,
			"byteLength":57804,
			"byteOffset":228984,
			"target":34962
		},
		{
			"buffer":0,
			"byteLength":57804,
			"byteOffset":286788,
			"target":34962
		},
		{
			"buffer":0,
			"byteLength":38536,
			"byteOffset":344592,
			"target":34962
		},
		{
			"buffer":0,
			"byteLength":17046,
			"byteOffset":383128,
			"target":34963
		}
	],
	"buffers":[
		{
			"byteLength":400176,
			"uri":"Dark.bin"
		}
	]
}
